<svg xmlns="http://www.w3.org/2000/svg" viewBox="0 0 100 100" width="256" height="256">
  <rect width="100" height="100" rx="22" fill="#1E8A4C"></rect>
  <g transform="translate(50 50) scale(0.6) translate(-50 -50)"><g fill="#FFFFFF"><g transform="rotate(0 50 50)"><path transform="translate(0 -22)" d="M50,72 C34,56 24,48 24,38 C24,30 31,25 38,25 C44,25 48,29 50,34 C52,29 56,25 62,25 C69,25 76,30 76,38 C76,48 66,56 50,72Z"></path></g><g transform="rotate(120 50 50)"><path transform="translate(0 -22)" d="M50,72 C34,56 24,48 24,38 C24,30 31,25 38,25 C44,25 48,29 50,34 C52,29 56,25 62,25 C69,25 76,30 76,38 C76,48 66,56 50,72Z"></path></g><g transform="rotate(240 50 50)"><path transform="translate(0 -22)" d="M50,72 C34,56 24,48 24,38 C24,30 31,25 38,25 C44,25 48,29 50,34 C52,29 56,25 62,25 C69,25 76,30 76,38 C76,48 66,56 50,72Z"></path></g></g><path d="M50,50 C46,61 50,70 50,85" stroke="#FFFFFF" stroke-width="6.5" fill="none" stroke-linecap="round"></path></g>
</svg>